<svg xmlns="http://www.w3.org/2000/svg" width="96" height="96" viewBox="0 0 96 96" role="img" aria-labelledby="title desc">
  <title id="title">Demo school ERP logo</title>
  <desc id="desc">Abstract campus shield logo for the MentriQ360 login page.</desc>
  <defs>
    <linearGradient id="shield" x1="14" y1="10" x2="82" y2="88" gradientUnits="userSpaceOnUse">
      <stop offset="0" stop-color="#3157D5"/>
      <stop offset="0.56" stop-color="#1F83C9"/>
      <stop offset="1" stop-color="#DF2622"/>
    </linearGradient>
    <linearGradient id="page" x1="30" y1="24" x2="66" y2="72" gradientUnits="userSpaceOnUse">
      <stop offset="0" stop-color="#FFFFFF"/>
      <stop offset="1" stop-color="#EAF1FF"/>
    </linearGradient>
  </defs>
  <rect width="96" height="96" rx="24" fill="#F7FAFF"/>
  <path d="M48 10 78 22v22c0 20.2-12.5 34.8-30 42C30.5 78.8 18 64.2 18 44V22l30-12Z" fill="url(#shield)"/>
  <path d="M30 30c8-4.2 17-4.2 26 0v35c-9-4.4-18-4.4-26 0V30Z" fill="url(#page)" opacity="0.96"/>
  <path d="M56 30c4.2-2 8.7-3 13-2.8v34.5c-4.3-.2-8.8.8-13 3V30Z" fill="#FFFFFF" opacity="0.76"/>
  <path d="M36 40h13M36 49h13M61 39h5M61 48h5M36 58h10" stroke="#3157D5" stroke-width="3" stroke-linecap="round"/>
  <circle cx="48" cy="22" r="5" fill="#FFFFFF"/>
  <path d="M42 75h12" stroke="#FFFFFF" stroke-width="4" stroke-linecap="round"/>
</svg>
